<?xml version="1.0" encoding="iso-8859-1"?>
<!-- Generator: Adobe Illustrator 22.1.0, SVG Export Plug-In . SVG Version: 6.00 Build 0)  -->
<svg version="1.1" id="Layer_1" xmlns="http://www.w3.org/2000/svg" xmlns:xlink="http://www.w3.org/1999/xlink" x="0px" y="0px"
	 viewBox="0 0 100 100" style="enable-background:new 0 0 100 100;" xml:space="preserve">
<path style="fill:none;stroke:#000000;stroke-width:2;stroke-linejoin:round;stroke-miterlimit:10;" d="M55,33c0-4.418,3.582-8,8-8
	s7,0,7,0V14c0,0-5-1-11-1c-9.941,0-18,8.059-18,18v9H30v14h11v33h14V54h13l2-14H55C55,40,55,33.718,55,33z"/>
<path style="fill:none;stroke:#000000;stroke-linecap:round;stroke-miterlimit:10;" d="M45.5,53.5v29 M65.5,17.884
	C63.725,17.682,61.444,17.5,59,17.5c-7.444,0-13.5,6.056-13.5,13.5v0.5"/>
<line style="fill:none;stroke:#000000;stroke-linecap:round;stroke-miterlimit:10;" x1="45.5" y1="40.5" x2="45.5" y2="39.5"/>
<line style="fill:none;stroke:#000000;stroke-linecap:round;stroke-miterlimit:10;" x1="45.5" y1="37.5" x2="45.5" y2="34.5"/>
</svg>